<svg xmlns="http://www.w3.org/2000/svg" version="1.1" xmlns:xlink="http://www.w3.org/1999/xlink" xmlns:svgjs="http://svgjs.dev/svgjs" viewBox="0 0 800 800"><defs><linearGradient x1="50%" y1="0%" x2="50%" y2="100%" id="ffflurry-grad" gradientTransform="rotate(270)"><stop stop-color="" stop-opacity="1" offset="0%"></stop><stop stop-color="#fd5526" stop-opacity="1" offset="45%"></stop><stop stop-color="hsl(167, 52%, 78%)" stop-opacity="1" offset="100%"></stop></linearGradient></defs><rect width="100%" height="100%" fill=""></rect><g fill="url(#ffflurry-grad)"><rect width="134" height="1" x="396" y="354.5" rx="0.5" transform="rotate(54, 463, 355)" opacity="0.56"></rect><rect width="474" height="1" x="-51" y="72.5" rx="0.5" transform="rotate(54, 186, 73)" opacity="0.88"></rect><rect width="1443" height="1" x="-606.5" y="424.5" rx="0.5" transform="rotate(54, 115, 425)" opacity="0.19"></rect><rect width="1932" height="1" x="-456" y="117.5" rx="0.5" transform="rotate(54, 510, 118)" opacity="0.48"></rect><rect width="1566" height="1" x="-105" y="492.5" rx="0.5" transform="rotate(54, 678, 493)" opacity="0.99"></rect><rect width="1519" height="1" x="-461.5" y="535.5" rx="0.5" transform="rotate(54, 298, 536)" opacity="0.98"></rect><rect width="832" height="1" x="236" y="708.5" rx="0.5" transform="rotate(54, 652, 709)" opacity="0.52"></rect><rect width="781" height="1" x="18.5" y="688.5" rx="0.5" transform="rotate(54, 409, 689)" opacity="0.47"></rect><rect width="638" height="1" x="-140" y="233.5" rx="0.5" transform="rotate(54, 179, 234)" opacity="0.14"></rect><rect width="465" height="1" x="485.5" y="176.5" rx="0.5" transform="rotate(54, 718, 177)" opacity="0.33"></rect><rect width="622" height="1" x="-194" y="688.5" rx="0.5" transform="rotate(54, 117, 689)" opacity="0.45"></rect></g></svg>